<?xml version="1.0" encoding="UTF-8"?>
<svg version="1.1" xmlns="http://www.w3.org/2000/svg" width="512" height="512">
<path d="M0 0 C1.29820053 -0.00765109 2.59640106 -0.01530219 3.93394101 -0.02318513 C7.52657281 -0.04372435 11.11880499 -0.03938722 14.71146941 -0.03082395 C18.59026234 -0.02588558 22.46895953 -0.04392254 26.34771729 -0.05889893 C33.9425058 -0.0843866 41.53715287 -0.08798113 49.13197695 -0.0832984 C55.30594829 -0.079731 61.47987672 -0.08323357 67.65384293 -0.09174728 C68.53286086 -0.09293766 69.4118788 -0.09412804 70.31753365 -0.09535449 C72.10331734 -0.09777802 73.88910102 -0.10020629 75.67488469 -0.10263924 C92.41892704 -0.12438794 109.16288882 -0.12006639 125.90693571 -0.10786955 C141.21971337 -0.09753168 156.53223656 -0.12004103 171.84496389 -0.15806599 C187.57389567 -0.19682459 203.30270706 -0.21333448 219.0316869 -0.20581949 C227.85999432 -0.2019956 236.68808516 -0.20696877 245.51635361 -0.23524857 C253.03213221 -0.25908066 260.54756091 -0.26188153 268.06334434 -0.23766823 C271.89653983 -0.22589321 275.72909543 -0.22368245 279.56224823 -0.24767303 C283.72153017 -0.27340181 287.87929056 -0.25245679 292.03857422 -0.22705078 C293.84807094 -0.24917364 293.84807094 -0.24917364 295.69412315 -0.27174342 C303.37166433 -0.17305898 308.40671592 1.28157124 314.14627075 6.52139282 C318.66239366 11.84880861 318.96237427 17.83153199 319.58377075 24.58389282 C321.66711334 43.16954031 327.98381914 57.08614429 341.14627075 70.52139282 C341.73795044 71.14916626 342.32963013 71.7769397 342.9392395 72.42373657 C353.79238403 82.98938059 368.89667919 87.31157077 383.45877075 89.45889282 C389.84009736 90.47656844 393.97528487 92.17438106 398.45877075 97.02139282 C409.77567455 113.78717622 398.96563738 147.12500784 395.39627075 165.89639282 C389.73564124 194.48508609 381.96568364 222.08477408 372.14627075 249.52139282 C371.91852966 250.15841125 371.69078857 250.79542969 371.45614624 251.45175171 C366.07150639 266.43808481 359.74726922 280.87855725 352.83377075 295.20889282 C352.32577942 296.26564713 352.32577942 296.26564713 351.80752563 297.34375 C340.97176913 319.77837693 340.97176913 319.77837693 334.38845825 322.92373657 C328.16110632 324.58364048 321.411019 324.82636988 315.38064575 322.41592407 C309.79140595 318.96429088 306.35699937 315.01193106 304.62283325 308.57998657 C302.9994458 299.36275338 307.29779718 291.85359714 311.45877075 283.95889282 C335.67130556 236.55004274 354.86905449 180.94325193 358.14627075 127.52139282 C357.14209106 127.16947876 356.13791138 126.8175647 355.103302 126.45498657 C325.52611099 115.87222181 302.0558575 96.8414025 288.14627075 68.52139282 C284.04735636 59.69718225 281.52783007 51.04763011 279.14627075 41.52139282 C191.36627075 41.52139282 103.58627075 41.52139282 13.14627075 41.52139282 C11.82627075 46.47139282 10.50627075 51.42139282 9.14627075 56.52139282 C-1.38462793 85.45629064 -21.74958759 108.18890439 -49.54122925 121.39639282 C-55.48540686 124.1354748 -61.48153934 126.06227741 -67.85372925 127.52139282 C-67.68176025 128.53362915 -67.68176025 128.53362915 -67.50631714 129.5663147 C-66.62523857 134.79774599 -65.76959414 140.03121946 -64.9715271 145.27603149 C-57.95975262 191.23318899 -45.56481345 235.34841692 -25.85372925 277.52139282 C-25.35905151 278.58245239 -24.86437378 279.64351196 -24.35470581 280.73672485 C-11.48436123 308.03784658 4.67433085 333.6699055 23.14627075 357.52139282 C23.55522583 358.0550647 23.96418091 358.58873657 24.38552856 359.13858032 C40.95021344 380.74360883 59.39679763 402.15785523 80.17752075 419.82998657 C82.42408582 421.76007124 84.5921098 423.76557422 86.77127075 425.77139282 C101.54104933 439.0619523 117.96081642 450.98427744 134.58377075 461.83389282 C135.28735718 462.29602173 135.9909436 462.75815063 136.71585083 463.23428345 C141.13174949 466.17567185 141.13174949 466.17567185 146.14627075 467.52139282 C148.43771495 466.51678419 148.43771495 466.51678419 150.70877075 464.87295532 C151.5818689 464.28441772 152.45496704 463.69588013 153.35452271 463.08950806 C154.73643799 462.12766602 154.73643799 462.12766602 156.14627075 461.14639282 C157.09526245 460.49807495 158.04425415 459.84975708 159.02200317 459.18179321 C174.31491846 448.67567943 189.08768148 437.29927174 202.74002075 424.71670532 C204.05444591 423.51750575 205.37650618 422.32577953 206.73245239 421.17373657 C213.05769808 415.77992265 218.91719515 409.93657525 224.79104614 404.06192017 C226.57137327 402.28377511 228.35955452 400.51379721 230.14822388 398.74404907 C237.50856704 391.41932819 244.23077125 383.88650568 250.58425903 375.65933228 C254.06313346 371.27301405 257.80940566 368.30034785 263.14627075 366.52139282 C270.40324325 365.82647069 276.56727292 365.59623024 282.5642395 370.10342407 C287.02357828 374.1003129 289.07606008 377.58658816 290.14627075 383.52139282 C290.45825379 394.12881603 285.10586261 400.8180963 278.33377075 408.45889282 C277.49942505 409.40997925 277.49942505 409.40997925 276.64822388 410.38027954 C263.94570664 424.75289069 250.79861752 439.37476754 236.14627075 451.79873657 C233.71237944 453.89511561 231.3749265 456.08536663 229.02127075 458.27139282 C223.28972846 463.49189225 217.26945585 468.25561835 211.12966919 472.98379517 C209.00095325 474.63404787 206.8892099 476.30447661 204.77908325 477.97842407 C159.86328227 513.50313485 159.86328227 513.50313485 142.85720825 513.05264282 C117.48684448 509.42067496 88.10170896 481.43189088 69.14627075 465.52139282 C68.11121336 464.66189876 67.07605268 463.80252907 66.040802 462.94326782 C53.94967038 452.85858771 42.55078247 442.09871416 31.44168091 430.94717407 C29.75451117 429.25457935 28.0619688 427.56748685 26.368927 425.88076782 C20.74813917 420.26372589 15.26994557 414.60237204 10.14627075 408.52139282 C9.26955561 407.51150576 8.39199936 406.50234806 7.51345825 405.49404907 C0.03802165 396.76489504 -6.98383017 387.73307355 -13.85372925 378.52139282 C-14.39819702 377.79258911 -14.94266479 377.0637854 -15.50363159 376.31289673 C-70.87348382 301.85566602 -108.57274359 205.50236678 -110.41622925 111.95889282 C-110.44313843 111.19858765 -110.47004761 110.43828247 -110.49777222 109.65493774 C-110.44901883 102.77048771 -107.26030928 97.92797285 -102.47872925 93.14639282 C-97.68912204 90.18139789 -92.29614885 89.3607809 -86.80343628 88.53408813 C-67.5188861 85.59977001 -51.67678378 76.47670436 -39.78341675 60.79092407 C-32.98413182 50.59199668 -28.46060746 39.51532677 -27.506073 27.27920532 C-26.10838607 10.12901618 -26.10838607 10.12901618 -19.85372925 4.52139282 C-13.44983143 -0.19644238 -7.78269357 -0.04858523 0 0 Z " fill="#000000" transform="translate(109.85372924804688,-0.521392822265625)"/>
<path d="M0 0 C4.92808194 1.97959727 8.60676605 4.91203273 11.5 9.375 C14.2972601 16.13504525 14.83248586 22.0837293 12 29 C1.15831016 50.62930642 -16.58045163 75.48928269 -37.5859375 88.14453125 C-39.35400911 90.06648041 -39.35400911 90.06648041 -38.9375 93.43359375 C-30.01825725 143.51725456 -2.42173194 192.65682304 29 232 C29.73605469 232.92941406 30.47210938 233.85882813 31.23046875 234.81640625 C36.43170726 241.28803576 41.95674622 247.41963457 47.61035156 253.49267578 C48.96178648 254.95855055 50.28988812 256.44582981 51.6171875 257.93359375 C62.96109666 270.60713025 75.49152394 282.57082224 89.390625 292.41796875 C96.1427658 297.25560474 101.75492884 301.62014138 104 310 C104.96579442 315.8841919 104.362792 320.9583998 101.41015625 326.17578125 C98.19089144 330.34031495 93.9700794 333.34330687 89 335 C87.27604932 335.16988852 85.54417968 335.26609392 83.8125 335.3125 C82.91144531 335.34988281 82.01039063 335.38726562 81.08203125 335.42578125 C73.26791119 334.34626403 67.46286694 329.27565509 61.625 324.3125 C60.88258057 323.69109131 60.14016113 323.06968262 59.37524414 322.42944336 C54.62228544 318.43227196 49.94034248 314.36662909 45.37109375 310.16015625 C44.02866066 308.93714884 42.67749407 307.72314961 41.29956055 306.5402832 C35.58561529 301.63269242 30.25003987 296.39906039 24.9375 291.0625 C23.64875977 289.77956055 23.64875977 289.77956055 22.33398438 288.47070312 C17.34704025 283.47613953 12.57430091 278.37376413 8 273 C7.11115508 271.97875045 6.22186415 270.95788883 5.33203125 269.9375 C-37.04702355 220.52812138 -66.54775487 161.15240014 -81.5 97.875 C-81.88345581 96.26588745 -81.88345581 96.26588745 -82.2746582 94.62426758 C-84.18032997 86.19654646 -85.74295765 77.75844829 -81 70 C-76.81181584 65.388494 -71.81390774 61.83323296 -66.75 58.25 C-51.46323869 47.30947475 -39.14361029 33.18137945 -29.625 16.9921875 C-29.2014624 16.28280029 -28.7779248 15.57341309 -28.34155273 14.8425293 C-27.51199706 13.4448412 -26.69793701 12.03779366 -25.90258789 10.62036133 C-19.89808889 0.52589528 -11.36731798 -1.81877088 0 0 Z " fill="#000000" transform="translate(171,77)"/>
</svg>
